<mxfile host="app.diagrams.net" modified="2024-02-29T06:34:15.288Z" agent="Mozilla/5.0 (Macintosh; Intel Mac OS X 10_15_7) AppleWebKit/537.36 (KHTML, like Gecko) Chrome/122.0.0.0 Safari/537.36" etag="CXiZbu-ioeCxcO4jV0LE" version="23.1.7" type="github">
  <diagram name="Page-1" id="YQmtVraagnZSc3_D-Kwj">
    <mxGraphModel dx="2074" dy="1146" grid="1" gridSize="10" guides="1" tooltips="1" connect="1" arrows="1" fold="1" page="1" pageScale="1" pageWidth="850" pageHeight="1100" math="0" shadow="0">
      <root>
        <mxCell id="0" />
        <mxCell id="1" parent="0" />
        <mxCell id="ui-gBSpvC0rERq12B2-C-1" value="&lt;b&gt;&lt;font style=&quot;font-size: 16px;&quot;&gt;栈略数据表&lt;/font&gt;&lt;/b&gt;" style="shape=cylinder3;whiteSpace=wrap;html=1;boundedLbl=1;backgroundOutline=1;size=15;" vertex="1" parent="1">
          <mxGeometry y="180" width="90" height="120" as="geometry" />
        </mxCell>
        <mxCell id="ui-gBSpvC0rERq12B2-C-14" value="4. 重建ES索引" style="edgeStyle=orthogonalEdgeStyle;rounded=0;orthogonalLoop=1;jettySize=auto;html=1;" edge="1" parent="1" source="ui-gBSpvC0rERq12B2-C-4" target="ui-gBSpvC0rERq12B2-C-5">
          <mxGeometry relative="1" as="geometry" />
        </mxCell>
        <mxCell id="ui-gBSpvC0rERq12B2-C-4" value="&lt;b&gt;&lt;font style=&quot;font-size: 16px;&quot;&gt;国寿财&lt;br&gt;数据表&lt;/font&gt;&lt;/b&gt;" style="shape=cylinder3;whiteSpace=wrap;html=1;boundedLbl=1;backgroundOutline=1;size=15;" vertex="1" parent="1">
          <mxGeometry x="440" y="180" width="90" height="120" as="geometry" />
        </mxCell>
        <mxCell id="ui-gBSpvC0rERq12B2-C-5" value="&lt;b&gt;&lt;font style=&quot;font-size: 16px;&quot;&gt;国寿财&lt;br&gt;ES索引&lt;br&gt;&lt;/font&gt;&lt;/b&gt;" style="shape=cylinder3;whiteSpace=wrap;html=1;boundedLbl=1;backgroundOutline=1;size=15;" vertex="1" parent="1">
          <mxGeometry x="670" y="180" width="90" height="120" as="geometry" />
        </mxCell>
        <mxCell id="ui-gBSpvC0rERq12B2-C-6" value="系统页面" style="swimlane;whiteSpace=wrap;html=1;" vertex="1" parent="1">
          <mxGeometry x="640" y="350" width="150" height="130" as="geometry" />
        </mxCell>
        <mxCell id="ui-gBSpvC0rERq12B2-C-11" style="edgeStyle=orthogonalEdgeStyle;rounded=0;orthogonalLoop=1;jettySize=auto;html=1;" edge="1" parent="1" source="ui-gBSpvC0rERq12B2-C-8" target="ui-gBSpvC0rERq12B2-C-4">
          <mxGeometry relative="1" as="geometry" />
        </mxCell>
        <mxCell id="ui-gBSpvC0rERq12B2-C-16" value="3. 导入增量数据" style="edgeLabel;html=1;align=center;verticalAlign=middle;resizable=0;points=[];" vertex="1" connectable="0" parent="ui-gBSpvC0rERq12B2-C-11">
          <mxGeometry x="-0.26" y="4" relative="1" as="geometry">
            <mxPoint x="13" y="4" as="offset" />
          </mxGeometry>
        </mxCell>
        <mxCell id="ui-gBSpvC0rERq12B2-C-8" value="INSERT SQL&lt;br&gt;文件" style="whiteSpace=wrap;html=1;shape=mxgraph.basic.document" vertex="1" parent="1">
          <mxGeometry x="220" y="200" width="80" height="80" as="geometry" />
        </mxCell>
        <mxCell id="ui-gBSpvC0rERq12B2-C-9" style="edgeStyle=orthogonalEdgeStyle;rounded=0;orthogonalLoop=1;jettySize=auto;html=1;entryX=0;entryY=0.5;entryDx=0;entryDy=0;entryPerimeter=0;" edge="1" parent="1" source="ui-gBSpvC0rERq12B2-C-1" target="ui-gBSpvC0rERq12B2-C-8">
          <mxGeometry relative="1" as="geometry" />
        </mxCell>
        <mxCell id="ui-gBSpvC0rERq12B2-C-10" value="1. 导出增量数据" style="edgeLabel;html=1;align=center;verticalAlign=middle;resizable=0;points=[];" vertex="1" connectable="0" parent="ui-gBSpvC0rERq12B2-C-9">
          <mxGeometry x="0.06" y="1" relative="1" as="geometry">
            <mxPoint x="-13" y="1" as="offset" />
          </mxGeometry>
        </mxCell>
        <mxCell id="ui-gBSpvC0rERq12B2-C-12" value="&lt;b&gt;&lt;font style=&quot;font-size: 16px;&quot;&gt;国寿财&lt;br&gt;备份数据表&lt;/font&gt;&lt;/b&gt;" style="shape=cylinder3;whiteSpace=wrap;html=1;boundedLbl=1;backgroundOutline=1;size=15;" vertex="1" parent="1">
          <mxGeometry x="440" y="10" width="90" height="120" as="geometry" />
        </mxCell>
        <mxCell id="ui-gBSpvC0rERq12B2-C-13" style="edgeStyle=orthogonalEdgeStyle;rounded=0;orthogonalLoop=1;jettySize=auto;html=1;entryX=0.5;entryY=1;entryDx=0;entryDy=0;entryPerimeter=0;" edge="1" parent="1" source="ui-gBSpvC0rERq12B2-C-4" target="ui-gBSpvC0rERq12B2-C-12">
          <mxGeometry relative="1" as="geometry" />
        </mxCell>
        <mxCell id="ui-gBSpvC0rERq12B2-C-17" value="2. 备份数据表" style="edgeLabel;html=1;align=center;verticalAlign=middle;resizable=0;points=[];" vertex="1" connectable="0" parent="ui-gBSpvC0rERq12B2-C-13">
          <mxGeometry x="-0.06" y="-2" relative="1" as="geometry">
            <mxPoint y="1" as="offset" />
          </mxGeometry>
        </mxCell>
        <mxCell id="ui-gBSpvC0rERq12B2-C-15" style="edgeStyle=orthogonalEdgeStyle;rounded=0;orthogonalLoop=1;jettySize=auto;html=1;entryX=0.5;entryY=1;entryDx=0;entryDy=0;entryPerimeter=0;" edge="1" parent="1" source="ui-gBSpvC0rERq12B2-C-6" target="ui-gBSpvC0rERq12B2-C-5">
          <mxGeometry relative="1" as="geometry" />
        </mxCell>
        <mxCell id="ui-gBSpvC0rERq12B2-C-18" value="5. 页面校验" style="edgeLabel;html=1;align=center;verticalAlign=middle;resizable=0;points=[];" vertex="1" connectable="0" parent="ui-gBSpvC0rERq12B2-C-15">
          <mxGeometry x="-0.5514" relative="1" as="geometry">
            <mxPoint y="-9" as="offset" />
          </mxGeometry>
        </mxCell>
      </root>
    </mxGraphModel>
  </diagram>
</mxfile>
